<?xml version="1.0" encoding="utf-8"?>
<!-- Generator: Adobe Illustrator 21.0.0, SVG Export Plug-In . SVG Version: 6.00 Build 0)  -->
<svg version="1.0" id="Layer_1" xmlns="http://www.w3.org/2000/svg" xmlns:xlink="http://www.w3.org/1999/xlink" x="0px" y="0px"
	 viewBox="0 0 1000 1000" style="enable-background:new 0 0 1000 1000;" xml:space="preserve">
<style type="text/css">
	.st0{display:none;fill:#004873;}
	.st1{fill:#025984;}
	.st2{fill:none;stroke:#3D64E2;stroke-width:3;stroke-miterlimit:10;}
	.st3{fill:#0A385E;}
	.st4{fill:none;stroke:#3D64E2;stroke-width:2;stroke-miterlimit:10;}
	.st5{opacity:0.56;}
	.st6{fill:none;stroke:#3D64E2;stroke-width:2;stroke-linecap:round;stroke-linejoin:round;stroke-miterlimit:10;}
	.st7{fill:#07263A;}
</style>
<rect x="0" class="st0" width="1000" height="1009"/>
<g id="trees">
	<path class="st1" d="M784.1,333c0,0,43.4-4.9,68.1,9.6s36.9,25.6,41.2,45.9c4.3,20.4,5.4,29.9,5.4,29.9l-24.1,1
		c0,0,2-10.8-7.9-15.7c-9.8-4.9-14.7-7.9-14.7-7.9l-2.5-29.1l-30.3,3c0,0-0.3,39.7,0.1,42.2c0.4,2.6-1.3,5.9-3.2,5.3
		c-1.9-0.5-7.1-4.6-7.8-8.1s-1.8-7.1-1.8-7.1l-3.6-1.2l-2.1-9l-4.5-1.2l-4-10.2l-6.9,1.8l-1.8,6.8l-2.8,1.9l-2-21.5l-3.8-2.1
		l-30.3,0.9l-2.1,3.4l-16.9,0.7l-14.5-2.4l-14.6-1.9l-5.3,0.4l-7,2.8l-4.6-0.9l1.2-3.8l2.7-6.4l-0.9-4.7l0.4-9c0,0,2.1,1.8,1.8,3.1
		s3.2,11.6,3.8,11.9c0.6,0.3,9.2,2.3,9.2,2.3l12.3,1.2l1.3-3.6c0,0,3.8,4.9,4.5,5.2c0.7,0.3,14.8,3.1,16.7,2.7
		c1.9-0.4,8-0.2,6.8-2.7s0.5-3.8,0.5-3.8l4.9,1.8c0,0,4,2.7,6.4,1.8c2.4-0.9,16.7-1.1,18.8-0.4s8.4,0.3,9.5-0.9
		C780.7,363.4,775.6,333.6,784.1,333z"/>
	<polygon class="st1" points="612.9,430.2 610.9,433.4 609.6,438.9 603.3,443.7 603.3,449.2 676.3,447.6 681.5,450.8 709.6,450.5 
		710.2,444.6 689.5,443.8 690.2,432.4 709.9,435.8 710.1,431 686.3,427 676.9,429 673.3,425.7 659.3,432 656.5,437.8 648.6,436.4 
		643.7,426 627.4,425.3 622.7,429.9 	"/>
	<polygon class="st1" points="678.6,462.9 676,508.4 688.7,514.1 703.2,513 706.6,523.9 713,524.4 714.9,521.3 709.8,509.8 
		712.8,504.9 732.4,499.4 735.8,512.8 735.6,499.3 748.4,497.7 761,498.4 783.8,500 795.8,503.6 813.2,504.2 811.3,507.4 
		790.3,529.3 796,527.2 816.1,507.9 818.8,509.6 820.2,525.6 822.5,521.9 822.7,502.9 847.2,501.4 855.7,501.2 857.4,505.7 
		868.3,505.4 873.3,500.3 894.3,478.3 889.4,458.5 886,459.6 890.2,477.8 873.2,497.8 860.3,498.7 858.5,487.9 855.9,487.3 
		856.1,497.3 822.3,499.3 817.4,499.7 791.4,498.1 758.5,494.6 740.5,491.1 711.3,499.3 712.5,463.4 	"/>
	<polygon class="st1" points="715.1,433.1 731,432.8 740.5,421.8 739.9,408.3 742.3,409.7 745.6,445.1 736,445.8 735.6,432.3 
		731.1,445.7 715.1,446.5 	"/>
	<polygon class="st1" points="528.7,421.8 581.1,422.5 572.8,445.2 576.5,450.8 584.9,451 584,455 564.9,454 556.9,449.4 
		557.6,436.4 542.7,440.8 	"/>
	<polygon class="st1" points="471.5,473.8 473,493.1 506.4,491.6 509.7,511.9 490.3,528.9 457.2,529.3 456.9,525.1 442.5,526.1 
		441.4,521.5 326.9,521.1 308.2,521.8 307.3,487.8 320,471 	"/>
	<polygon class="st1" points="421.8,342.8 417.4,360.1 402.8,359.6 395.9,355.4 386.1,358 410.3,345.1 	"/>
	<polygon class="st1" points="382.6,361.6 372.6,374.4 370.4,378.1 363.4,375.8 360.5,385.6 355.1,390.5 357.1,399.2 376.8,412.7 
		351.1,398.7 346.3,405.1 325.9,418.9 319.4,419.6 314.2,424.8 307.3,423 314.1,417.8 326.5,414.9 342.4,402 351.9,392.6 357,367.7 
			"/>
</g>
<path id="main_track" class="st2" d="M799.1,533.7L304.8,534c-58.3-0.8-105.3-49.1-104.5-107.3v0c0.8-58.3,46.7-95.4,107.7-99.5
	l507.2,1.6c61.2,0.6,96,49.5,100.2,86.3c4.6,40.9-10.7,68.6-29.2,87.4C866.5,522.4,829,534.1,799.1,533.7z"/>
<g id="buisldings">
	<path class="st3" d="M596,399.1c-1.1-4.4,0.9-9.9,0.9-9.9l56,0.3l0.2-5l-34.8,0.1l-1.2-7.1l-11.3,0.1l-0.2,7l-8.8,0l-2.2-31.1
		c0,0,3.9-6.7,7.6-6.7c-4.2,0-101.8-0.3-101.8-0.3s19.3,2,19.3,6.5l0,6.8l-2.3,0.3l0.1,5.6l2.2,1.3l-0.2,25.3c0,0-9.7,9-22,7.9
		c-12.3-1.1,127.1,13.3,127.1,13.3S597,403.4,596,399.1z"/>
	<path class="st3" d="M602.3,347C602.3,347,602.3,347,602.3,347C602.5,347,602.5,347,602.3,347z"/>
	<polygon class="st3" points="532.6,436.6 535.8,436.6 539.4,440.7 537.9,443.3 539.1,445 538.4,446.1 533.5,443.7 533.2,445.2 
		537.4,447.8 533,452.1 534.6,454.1 533.9,455.2 530,456 520.5,451.9 521.7,449.9 512.3,447 499.7,442.2 505.5,430.6 518.7,436.5 
		514.5,446 518.6,447.5 521.1,447.8 522.4,445.6 518.8,444.4 520.9,437.4 526.3,439.3 525.4,442 528.1,442.8 529.7,440.1 
		531.6,440.4 	"/>
	<polygon class="st3" points="535.3,463.3 530.6,462.4 522.1,465.8 523.3,469.3 521.1,470.9 526.3,482 530.7,480.6 536.8,486.6 
		539.8,489.1 543.7,491.3 543.5,493.3 535.2,494.5 534.3,497.3 544.3,497.4 545.5,491.9 547.5,492.1 548.3,512.1 557,513 556,505.7 
		558,505.4 557.3,499.4 560.7,499.5 561.9,501.8 571,502.3 570,483.9 561.4,483.4 554.8,482.6 551.2,480.4 558.6,475.4 558.2,466.5 
		552.6,464 549.7,462.2 546.5,460.3 539.5,466.4 540.1,468.6 538.2,469.3 535.7,471 533.7,469.8 532,465.6 	"/>
	<path class="st3" d="M562.9,473.2c0,0,3.5-5.8,6.1-8c2.5-2.1,10.9,1.2,10.9,1.2l-2.3,8l2.7,1.7l-2.8,6l-3.4-2l-0.8,1.3l-11.8-2.3
		l0.1-3.9L562.9,473.2z"/>
	<polygon class="st3" points="587.3,433 583.5,432.9 581.3,436.5 574.4,438.3 572.8,445.2 576.5,450.8 584.9,451 584,448.8 
		589.2,435.2 	"/>
	<polygon class="st3" points="812.3,426.8 816.4,427.3 816.1,425.5 819.9,425.9 819.5,419.5 811.6,418.8 	"/>
	<polygon class="st3" points="759,408 752.5,409.1 752.9,433.4 759.3,433.3 	"/>
	<path class="st3" d="M226.2,419.9l-10.8-34.5c0,0,28.6-33.2,52.9-40.1c9.3-2.6,21.5-6.2,21.5-6.2l1.9,80.6L226.2,419.9z"/>
</g>
<path class="st4" d="M611.7,346.3c0,0-116.3-1.1-126.8,0s-18.4,12-19.7,23.3c-1.3,11.3,3.8,27.4,28.3,30.7
	C518,403.6,625.1,413,625.1,413s34.2,0.3,38-28.9C667,354.9,638,344.2,611.7,346.3z"/>
<g id="small_tracks" class="st5">
	<path class="st6" d="M523,346.5c0,0,2.6-5.1-6.8-4.9c-9.5,0.3-39.2-2.4-47.5,8.2c-8.3,10.6-13.9,26.6-3,41.4s28.8,18,37.9,23
		c9.1,5,18.9,10.5,24.8,15.4c5.9,5,25,23.9,25,23.9"/>
	<path class="st6" d="M541.3,441.9c0,0-12.3,14.7-3,27.5c9.3,12.8,20.6,12.5,20.6,12.5l-0.6-15.3"/>
	<path class="st6" d="M714.9,336.2c10.6,2.8,14.5,7.4,23.8,17.4c9.3,10,29.7,13.8,32.4-0.9s-15.1-16.9-15.1-16.9s-18.4,0.2-46.3,0.4
		c-84.1,0.8-254.1,2.2-264.1,1.2c-13.3-1.4-70.3,0.7-80.9,0.1s-22.2,8-20.2,17.1c2,9.3,14.3,15.2,37.9,0.6
		c29.2-18,63.1-17.8,63.1-17.8"/>
	<path class="st6" d="M465.6,391.2l-46.3,28.1c0,0-2.1,2-12.1,2.4c-9,0.4-152.1,5.1-179.4,6c-2.9,0.1,0.4-0.3-4.5,0.1
		s-5.1,3.8-2.5,4.1c2.7,0.2,4.9-0.8,7-4.2"/>
	<path class="st6" d="M565.6,458.8l17.7,0.7c0,0,4.9-22.4,16.7-30.9c11.8-8.5,19-8.3,31.7-8.6c12.7-0.3,27.6-11.1,32.2-18
		c1.1-1.7,2.5-3.8,3.8-6c4-6.7,8.2-14.9,8.2-20.1c0-6.9-0.5-47.4-0.5-47.4l0,0"/>
	<path class="st6" d="M760.1,451.7c0,0,1.9-7.2-1.3-8.8c-3.2-1.6-10.7,2.2-11.6-11.2c-0.9-13.4,3.3-23.1-4.6-26.2
		s-23.2,13.4-28.4,14.1s-3.8,2.9-7.5-0.4c-3.6-3.2-2.4-5.7,0-9.8s0-6.3-2.5-7.4s-6.1-0.2-8.6,3.8s-7.9,2.1-8.7,1.7
		c-0.8-0.5-0.5-4.8-17.4,5.1c-16.9,10-25,11.3-29,11.6c-4,0.3-12.1-0.7-13.2,1c-1.1,1.8-5.5,3.9-6.9,3.8c-1.3-0.1-9.6-2.3-13.4,0.2
		c-3.5,2.4-4.3,11-6.8,12.3c-2.5,1.3-8.5,0.7-10.2,3.5c-1.7,2.8-14.6,38.9-14.6,41.7s-1.6,8.4,6.6,10.3c8.3,1.9,17.4,0.1,20.7,2.1
		c3.3,2,63.3,9.9,67.7,11.2c4.4,1.3,19.8,10.3,26.4,13.9c6.5,3.6,17.5,3.3,27.5,2.4s19.6-0.2,25.2-3.1s13.1-4.4,13-21.4
		S760.1,451.7,760.1,451.7z"/>
	<line class="st6" x1="583.3" y1="459.5" x2="760.6" y2="458.2"/>
	<path class="st6" d="M587.4,452.6l186.8-0.7c0,0,3,0.8,4-3.1c0.3-1.2,0.5-2.5,0.6-3.7c0.2-2.6,0-4.7,0-4.7l-4.3,0.2l0,4.5"/>
	<path class="st6" d="M589.4,533.8c0,0-20.6-2.4-25.7-10.7c-5.1-8.3-4.9-41.3-4.9-41.3"/>
	<path class="st6" d="M532.8,533.8c0,0,17.2-1.1,22.5-11.3c5.4-10.1,3.5-37.5,3.5-37.5"/>
	<path class="st6" d="M489.7,533.9l17.4-13.8c0,0,21-19,22-20.8c1.1-1.7,7.7-12.7,7.7-12.7l8.9-9.5"/>
	<path class="st6" d="M667.7,395.9c0,0,16.6-2.8,19.1-1.3c2.5,1.5,20.8,6.4,22.7,6.8s49.4-2.7,49.4-2.7l0.4,36.5l3.2,4.4l1.8,12.4"
		/>
	<path class="st6" d="M840.3,465.5c-3.4-3.2,4.4-18.2-3.6-21.3c-4.2-1.6-5.2-3.5-6.4-10.1c-1.2-6.6,1.6-14,4.9-16.2
		c3.4-2.1,12.2,1.1,15.2,3.7c3,2.5,2.4,16.1,2.4,16.1s0.3,22.5-2.2,26.5s-10.1,1.2-12.4,0.8c-2.2-0.3-7.7,6.4-6.5,13.5
		s7.4,4.5,7.4,4.5s8.7-0.6,18.7-5c10-4.4,9.7-10.2,11-12.4c1.4-2.3,0.2-14-0.2-29.4c-0.4-12.8-5.6-6.2-8.9-11.7
		c-3.5-5.8-0.6-5.3,2-7.8c2.6-2.6,2-5-1.2-7.7c-3.3-2.7-10.4-0.3-14.4-6.7c-2.2-3.5,2.6-21.9-16.2-18c-3.7,0.8-5.1,3.3-6.8,6.1
		c-1.7,2.8,0.1,18.2,0.1,18.2s-0.7,18.3,0,24.6c0.5,4.8,4.7,15,7.1,17.3c4.1,3.9,8.2,2.4,9.5,0"/>
	<path class="st6" d="M830.6,476.2l-2.1-16.4c0,0-0.4-1.6,2.3-3.7c2.7-2.1-0.3-5.5-0.3-5.5"/>
	<path class="st6" d="M838.7,417.8c0,0,4.4,2.9,3.9,6.1c-0.5,3.2-6.7,9.2-2.1,12.4c3.8,2.6,12.4,2.7,12.4,2.7"/>
	<path class="st6" d="M822.8,412.8c0,0-3.3,4.6-3.4,4.9c0,0.1,0,0.8,0,1.8c0.1,2.4,0.4,6.4,0.4,6.4l3.1,3.8"/>
	<path class="st6" d="M759,408c0,0,11.5,0,14.3-0.6s7.4-5.3,8.7-6.1c1.2-0.7,15.6,0.8,18.5,1.2c2.9,0.4,6.1,3.5,6,4.8
		c0,1.3,1.5,5.9,2.8,7.4c1.3,1.6,4,5,4,5"/>
	<path class="st6" d="M769.9,421.1c-0.4,7.1,1.7,64.3,1.7,64.3s0.6,5.7,3.8,5.2s4.7-3.5,3.2-7.4c-1.5-3.9-6.9-13.1-2.4-21.8
		c4.5-8.7,15-13.5,16.7-17.1c1.7-3.6,2.9-17,1.9-19.4s-8.2-9.6-7.5-11.7c0.8-2.4,3.7-5.1,8.4-1.8c4.8,3.3,7.2,8.4,4.9,14.2
		c-2,5-5.1,5.8,2.6,12.3c6.3,5.3,7,5.7,7.9,16.5c0.8,9.1,3.1,8.9,6.2,8.9c3.1,0,5.3-4.4,2.3-9.7c-3-5.3-16.5-40-16.5-40
		s-5.2-6.1-9.8-7.4C786.5,404.4,770.4,412.1,769.9,421.1z"/>
	
		<ellipse transform="matrix(0.5196 -0.8544 0.8544 0.5196 12.1049 875.3773)" class="st6" cx="784.5" cy="426.9" rx="5.9" ry="5.9"/>
	<path class="st6" d="M782.6,411.8c0,0-2.2,3-4.6,3s-4.9-0.4-4.9-0.4"/>
	<path class="st6" d="M769.8,423.2c0,0,3.1,11.3,11.6,12.5c8.4,1.2,11.7-2.9,12.5-4.7c0.8-1.8,1.3-4.5,1.3-4.5"/>
	<path class="st6" d="M733.5,452.1l-0.2,3.1l-134,0.7c0,0-1-2-2.5-2.6c-1.5-0.7-2.2-0.7-2.2-0.7"/>
	<path class="st6" d="M123,519l86-6c0,0,13,12,34,21s58,11,58,11l-0.4-11.1c0,0,0.1-38.1,1.3-52.4c1.2-14.3,18.9-20.1,21-20.7
		c2-0.6,27-1,27-1s106.6-1.1,113.6-1.1c6.9-0.1,16.5,0.6,16.5,0.6l71.4-0.8"/>
	<path class="st6" d="M448.3,337.6c0,0-2.3,4.7,2.7,11.1s11.7,8.5,11.7,8.5"/>
	<path class="st6" d="M441.1,371.1c0,0,0,1.2,2.4,1.4c2.3,0.2,3.1,0.3,5-2.5c1.9-2.8,8.4-15.9,8.4-15.9l-5-4.4L441.1,371.1z"/>
	
		<ellipse transform="matrix(0.5196 -0.8544 0.8544 0.5196 -85.5094 544.2388)" class="st6" cx="441.2" cy="348.2" rx="2.7" ry="2.7"/>
	
		<ellipse transform="matrix(0.5196 -0.8544 0.8544 0.5196 -123.7799 698.0346)" class="st6" cx="558.9" cy="459.1" rx="7.5" ry="7.5"/>
	<path class="st6" d="M769.5,390.5l-9.8-0.2l-3.4-0.1c-1.7,0-3-1.4-3-3.1l0,0c0-1.7,1.4-3,3.1-3l13.2,0.3c1.7,0,3,1.4,3,3.1v0
		C772.6,389.2,771.2,390.6,769.5,390.5z"/>
	<path class="st6" d="M717.3,384.5c0.5,0.4,6.8-1.4,9.3-5.4c4.2-6.9,5.5-6,7.2-2c1.2,2.9,7.4,0.1,9.9,0c2.5,0,7,0.3,6.2,1.5
		c-0.8,1.3-4.1,0.5-6.4,1.9s-5.2,3.4-3.7,4.5c1.4,1.1,6.5-2.8,8-0.5c1.2,1.9-5.5,3-4.3,4.8s7.6,0.2,6.9,2.1c-0.7,1.9-6,6.6-8.2,5.5
		c-2.1-1.1-9.6-6.2-16.6-4.5c-7,1.7-10.1,4.8-11.3,4.5c-1.2-0.4-0.8-2.4-0.6-4.5c0.2-2-1.9-1.7-4.1,0.2c-2.2,1.9-4.5,5.2-6.3,3.2
		c-1.8-2-1.4-4-5.1-4.3c-3.6-0.3-5.8,3.5-7.2,2.4c-1.4-1.1,0-3.7,3.6-7.9c3.6-4.2-4.7-0.8-6.2-2.4c-1.5-1.6-2.2-4.5,2.1-8
		c4.2-3.5,8.1-7.4,9.8-5.5c1.7,1.9-1.8,5-1.8,5.8c0,0.9-0.4,0.7,5,4.1c5.4,3.4,7.5,5.2,7.6,3c0.1-2.2-5.6-6.5-4.9-8s0.2-2.8,5.4,0.1
		c5.2,2.9,10,3.4,8.4,5.1C718.1,381.7,714.9,382.7,717.3,384.5z"/>
	<path class="st6" d="M771.2,384.1c0,0-1.2-12-0.3-13.5c0.9-1.5,1.2-1.7,3.2-1.7c2,0,2.6-0.2,2.8,2.7c0.2,2.9,0.8,10.2-1.9,10.1
		c-4.9-0.2-2.8-0.1-2.8-0.1"/>
	<polyline class="st6" points="349.9,459.8 351.1,464.8 382.9,464.4 382.7,459.5 	"/>
	<line class="st6" x1="521.5" y1="403.4" x2="521" y2="424.4"/>
	<line class="st6" x1="712.6" y1="419.5" x2="712.2" y2="452.1"/>
	<path class="st6" d="M799.8,434.6c0,0,3.6,2.2,6.1,1.1c2.5-1.1,3.9-5.2,3.2-7.1"/>
	<path class="st6" d="M584.2,463.4c0,0,7.7,1.5,10.5,1.7c2.8,0.2,5.3,0,5.3,0"/>
	<path class="st6" d="M596.6,464.7c0,0,0-2.1,3.3-1.8s16.5,0.9,16.5,0.9l-0.5,1.4l3.4,0.3l0.1,13"/>
	<line class="st6" x1="448.3" y1="356.8" x2="454.3" y2="359.2"/>
	<line class="st6" x1="758.9" y1="398.7" x2="759.7" y2="390.3"/>
	<path class="st6" d="M294.8,328.6l4.1,97.4c0,0,0.5-46.7,0-61.9c-0.5-15.1-0.1-13,1.2-14.8c1.3-1.8,35.6-11.6,40.5-13.7
		s14.4-3.9,21.4-4.6c7-0.6,6-2.6,6-2.6"/>
	<path class="st6" d="M326.6,353.7c0,0-1-4.3-2.3-4s-2.8,0.4-1.6,2.7c1.2,2.3,3.6,5.5,2.7,7.6s-2.4,7.9-4.2,6.9
		c-1.8-1.1-2.6-7.7-2.1-10.9c0.4-3.2-2.4-6.3-3.9-5.3c-1.5,1-2.4,5.9-3.2,13.6c-0.9,7.7,0.3,14.2-0.9,16.4c-1.2,2.2-0.9,6.4,1,6.2
		c1.9-0.2,4.9-1.2,4.4-3.2c-0.5-2-1.5-7.9-1.9-10.7c-0.4-2.8-0.2-6.7,1.1-5.2c1.3,1.5-0.2,3.4,3.5,5.6c3.7,2.2,8.6,2.8,8,4.5
		c-0.6,1.7-2,0.7-3.7,0.9c-1.7,0.2-3.6,1.8-3.9,3.9c-0.4,2,1.6,7.4,0.4,9.4c-1.2,2-3.6,5-4.9,8.1c-1.3,3-2.1,6.9-3.1,7.9
		s-4.1,0.3-3.9,1.3c0.2,1-1.7,2.1,1.6,2.5s6,1.6,7.7,0.7c1.7-0.9,3.1-3,3-5s0.6-5.4,1.6-6.9c0.9-1.5,7.7-12.1,7.9-15
		c0.2-3,0.5-22.5,0.1-24S326.6,353.7,326.6,353.7z"/>
	<path class="st6" d="M306.8,346.6c0,0,2.1,56.8,1.2,58.3s-3.4,11-4.5,11.9c-1.1,0.9-0.7,8.4-0.7,8.4"/>
	<polygon class="st6" points="599.3,466.3 598.8,468.3 607.4,468.7 607.2,464.7 599.2,464.2 	"/>
	<path class="st6" d="M519.5,375.7c0,0,1-1.3-8.2,1.5c-9.2,2.7-27.5,6.8-27.5,6.8"/>
	<path class="st6" d="M470.3,387.1c0,0,6.9,7.3,17.8,8.2c10.9,0.9,31.4-2.8,31.4-2.8"/>
	<polyline class="st6" points="578.2,480.6 580.6,481.1 585.7,465.8 583.2,465.2 	"/>
	<line class="st6" x1="362" y1="459.7" x2="362.4" y2="464.6"/>
</g>
<rect x="33" y="294" class="st7" width="11.4" height="11.4"/>
<rect x="957.6" y="294" class="st7" width="11.4" height="11.4"/>
<rect x="957.6" y="552.8" class="st7" width="11.4" height="11.4"/>
<rect x="33" y="552.8" class="st7" width="11.4" height="11.4"/>
<path class="st3" d="M70.7,544.9c0,0,7,0.1,15.2,0.2c10.6,0.1,23.1,0.1,24.6-0.2c2.7-0.5,6.6-2.9,6.6-2.9l3,1.6l18.6-9.1v-6.1h-6.1
	V500l-9.9-14.2c0,0-9.1,6.7-14.2,6.7c-10.4,0-10.4-11.8-10.4-11.8l-27.5,1.1V544.9z"/>
</svg>
